<?xml version="1.0" encoding="utf-8"?>
<!-- Generator: Adobe Illustrator 23.0.3, SVG Export Plug-In . SVG Version: 6.00 Build 0)  -->
<svg version="1.1" id="Layer_1" xmlns="http://www.w3.org/2000/svg" xmlns:xlink="http://www.w3.org/1999/xlink" x="0px" y="0px"
	 viewBox="0 0 138 15" style="enable-background:new 0 0 138 15;" xml:space="preserve">
<style type="text/css">
	.st0{enable-background:new    ;}
</style>
<title>DIGIDAY MEDIA</title>
<desc>Created with Sketch.</desc>
<g id="Symbols">
	<g id="d:-footer" transform="translate(-1151.000000, -256.000000)">
		<g id="mod:-copyright-">
			<g transform="translate(0.000000, 235.000000)">
				<g class="st0">
					<path d="M1161.8,33.6c-1.2,0.9-2.8,1.4-5,1.4h-4.7V22.6h4.7c2.2,0,3.8,0.5,5,1.4c1.2,0.9,2.1,2.3,2.1,4.9
						S1162.9,32.7,1161.8,33.6z M1159,26.5c-0.4-0.4-1-0.6-1.9-0.6h-0.9v5.7h0.9c0.9,0,1.5-0.3,1.9-0.6c0.4-0.4,0.7-0.9,0.7-2.2
						S1159.4,26.9,1159,26.5z"/>
					<path d="M1169.9,35h-4.1V22.6h4.1V35z"/>
					<path d="M1184.2,32.9c-1,0.9-2.4,2.3-5.8,2.3s-6.6-2-6.6-6.4s3.2-6.4,6.7-6.4s4.9,1.8,5.2,2.2l-2.7,2.3
						c-0.3-0.3-1.1-1.1-2.5-1.1s-2.6,1.1-2.6,3.1s1.1,3.1,2.6,3.1s1.7-0.5,1.7-0.5v-0.9h-1.9v-3h5.9V32.9z"/>
					<path d="M1190.6,35h-4.1V22.6h4.1V35z"/>
					<path d="M1202.7,33.6c-1.2,0.9-2.8,1.4-5,1.4h-4.7V22.6h4.7c2.2,0,3.8,0.5,5,1.4c1.2,0.9,2.1,2.3,2.1,4.9
						S1203.9,32.7,1202.7,33.6z M1200,26.5c-0.4-0.4-1-0.6-1.9-0.6h-0.9v5.7h0.9c0.9,0,1.5-0.3,1.9-0.6c0.4-0.4,0.7-0.9,0.7-2.2
						S1200.3,26.9,1200,26.5z"/>
					<path d="M1218.5,35h-4.4l-0.5-1.7h-3.5l-0.5,1.7h-4.2l4.3-12.4h4.5L1218.5,35z M1212.7,30.1l-0.9-3.3l-0.9,3.3H1212.7z"/>
					<path d="M1229.8,22.6l-4.3,7.6V35h-4.1v-4.9l-4.3-7.6h4.5l1.8,4.2l1.9-4.2H1229.8z"/>
				</g>
				<g class="st0">
					<path d="M1244.4,35h-1l-1.1-10.8l-4.6,11h-0.1l-4.6-11l-1,10.8h-1l1.3-12.4h1.1l4.3,10.6l4.3-10.6h1.1L1244.4,35z"/>
					<path d="M1254.4,35h-6.9V22.6h6.8v0.9h-5.8V28h5.5v0.9h-5.5v5.3h5.9V35z"/>
					<path d="M1265.4,33.3c-0.8,0.8-2.4,1.7-4.5,1.7h-3.4V22.6h3.4c2.2,0,3.7,0.9,4.5,1.7c0.8,0.8,1.9,2.2,1.9,4.5
						S1266.2,32.5,1265.4,33.3z M1264.6,24.8c-0.8-0.7-2.1-1.3-3.8-1.3h-2.4v10.7h2.4c1.7,0,3-0.6,3.8-1.3s1.7-2,1.7-4
						S1265.4,25.5,1264.6,24.8z"/>
					<path d="M1271.3,35h-1V22.6h1V35z"/>
					<path d="M1284.7,35h-1.1l-1.5-3.7h-5.9l-1.5,3.7h-1l5.3-12.5h0.5L1284.7,35z M1281.7,30.4l-2.6-6.4l-2.6,6.4H1281.7z"/>
				</g>
			</g>
		</g>
	</g>
</g>
</svg>
