<?xml version="1.0" encoding="utf-8"?>
<!-- Generator: Adobe Illustrator 21.0.0, SVG Export Plug-In . SVG Version: 6.00 Build 0)  -->
<svg version="1.1" id="Layer_1" xmlns="http://www.w3.org/2000/svg" xmlns:xlink="http://www.w3.org/1999/xlink" x="0px" y="0px" viewBox="0 0 49.5 49.2" style="enable-background:new 0 0 49.5 49.2;" xml:space="preserve">
   	<style type="text/css">
		.st0{opacity:0.99;}
		.st1{clip-path:url(#SVGID_4_);}
		.st2{clip-path:url(#SVGID_6_);}
		.st3{fill:#FFFFFF;}
	</style>
    <g>
        <g>
            <path id="SVGID_1_" d="M18.8,37.9l9.9,9.9c0.3,0.3,0.3,0.8,0,1.1c-0.3,0.3-0.8,0.3-1.1,0l-10-9.9l-9.9,9.9c-0.3,0.3-0.8,0.3-1.1,0
			s-0.3-0.8,0-1.1l9.9-9.9L6.8,28c-0.3-0.3-0.3-0.8,0-1.1s0.8-0.3,1.1,0l9.9,9.9l9.9-9.9c0.3-0.3,0.8-0.3,1.1,0
			c0.3,0.3,0.3,0.8,0,1.1L18.8,37.9z" />
        </g>
        <g>
            <g class="st0">
                <defs>
                    <path id="SVGID_2_" class="st0" d="M18.8,37.9l9.9,9.9c0.3,0.3,0.3,0.8,0,1.1c-0.3,0.3-0.8,0.3-1.1,0l-10-9.9l-9.9,9.9
					c-0.3,0.3-0.8,0.3-1.1,0s-0.3-0.8,0-1.1l9.9-9.9L6.8,28c-0.3-0.3-0.3-0.8,0-1.1s0.8-0.3,1.1,0l9.9,9.9l9.9-9.9
					c0.3-0.3,0.8-0.3,1.1,0c0.3,0.3,0.3,0.8,0,1.1L18.8,37.9z" />
                </defs>
                <clipPath id="SVGID_4_">
                    <use xlink:href="#SVGID_2_" style="overflow:visible;" />
                </clipPath>
                <g class="st1">
                    <g>
                        <rect id="SVGID_3_" x="4.8" y="26.6" width="25.6" height="24" />
                    </g>
                    <g>
                        <g>
                            <defs>
                                <rect id="SVGID_5_" x="4.8" y="26.6" width="25.6" height="24" />
                            </defs>
                            <clipPath id="SVGID_6_">
                                <use xlink:href="#SVGID_5_" style="overflow:visible;" />
                            </clipPath>
                            <rect x="-1.5" y="18.7" class="st2" width="38.3" height="38.3" />
                        </g>
                    </g>
                </g>
            </g>
        </g>
    </g>
    <rect x="14.2" y="-0.2" class="st3" width="15.8" height="3" />
</svg>
